# xmcd
#
# Track frame offsets: 
#        150
#        13915
#        26613
#        37610
#        53548
#        64600
#        79460
#        97505
#        110123
#        127378
#        141553
#        152938
#        164100
#        182323
#
# Disc length: 2594 seconds
#
# Revision: 3
# Processed by: cddbd v1.5.2PL0 Copyright (c) Steve Scherf et al.
# Submitted via: ExactAudioCopy v1.1
#
DISCID=bc0a200e
DTITLE=The Hellacopters - High Visibility
DYEAR=2000
DGENRE=Rock
TTITLE0=Hopless Case Of A Kid In Denial
TTITLE1=Baby Borderline
TTITLE2=Sometimes I Don't Know
TTITLE3=Toys And Flavors
TTITLE4=You're Too Good (To Me Baby)
TTITLE5=Throw Away Heroes
TTITLE6=No Song Unheard
TTITLE7=Truckloads Of Nothin'
TTITLE8=A Heart Without A Home
TTITLE9=No One's Gonna Do It For You
TTITLE10=I Wanna Touch
TTITLE11=Hurtin' Time
TTITLE12=Envious
TTITLE13=A Cross For Cain
EXTD=Japanese Version
EXTT0=
EXTT1=
EXTT2=
EXTT3=
EXTT4=
EXTT5=
EXTT6=
EXTT7=
EXTT8=
EXTT9=
EXTT10=
EXTT11=
EXTT12=
EXTT13=Japanese Bonus Track
PLAYORDER=
